<?xml version="1.0" standalone="no"?>
<!DOCTYPE svg PUBLIC "-//W3C//DTD SVG 20010904//EN"
 "http://www.w3.org/TR/2001/REC-SVG-20010904/DTD/svg10.dtd">
<svg version="1.0" xmlns="http://www.w3.org/2000/svg"
 width="512.000000pt" height="512.000000pt" viewBox="0 0 512.000000 512.000000"
 preserveAspectRatio="xMidYMid meet">
<metadata>
Created by potrace 1.11, written by Peter Selinger 2001-2013
</metadata>
<g transform="translate(0.000000,512.000000) scale(0.100000,-0.100000)"
fill="#000000" stroke="none">
<path d="M883 4491 c-93 -81 -258 -251 -324 -336 -60 -76 -119 -160 -119 -169
0 -3 954 -6 2120 -6 1343 0 2120 4 2120 10 0 16 -144 200 -229 293 -44 49
-125 129 -178 178 l-98 89 -1612 0 -1612 0 -68 -59z"/>
<path d="M111 3303 c-35 -120 -76 -307 -86 -395 l-7 -58 2541 0 2541 0 0 33
c0 51 -54 302 -90 420 l-33 107 -2417 0 -2417 0 -32 -107z"/>
<path d="M20 2247 c0 -64 49 -291 97 -449 l26 -88 2417 0 c2294 0 2418 1 2423
18 61 208 117 457 117 523 0 19 -65 19 -2540 19 l-2540 0 0 -23z"/>
<path d="M466 1088 c121 -168 233 -294 377 -425 l102 -93 1615 0 1615 0 101
93 c115 106 206 202 285 302 59 75 119 160 119 169 0 3 -957 6 -2126 6 l-2126
0 38 -52z"/>
</g>
</svg>
