<?xml version="1.0" standalone="no"?>
<!DOCTYPE svg PUBLIC "-//W3C//DTD SVG 20010904//EN"
 "http://www.w3.org/TR/2001/REC-SVG-20010904/DTD/svg10.dtd">
<svg version="1.0" xmlns="http://www.w3.org/2000/svg"
 width="512.000000pt" height="512.000000pt" viewBox="0 0 512.000000 512.000000"
 preserveAspectRatio="xMidYMid meet">
<metadata>
Created by potrace 1.11, written by Peter Selinger 2001-2013
</metadata>
<g transform="translate(0.000000,512.000000) scale(0.100000,-0.100000)"
fill="#000000" stroke="none">
<path d="M2379 5116 c-2 -2 -40 -6 -83 -10 -44 -4 -82 -9 -85 -11 -4 -2 -34
-7 -66 -10 -117 -14 -472 -111 -499 -136 -6 -5 -16 -9 -23 -9 -6 0 -63 -23
-125 -52 -533 -244 -969 -666 -1228 -1186 -83 -168 -167 -395 -195 -526 -2
-12 -7 -32 -10 -46 -14 -59 -44 -241 -52 -315 -16 -165 -8 -517 16 -640 9 -48
8 -41 16 -90 18 -114 81 -328 135 -465 195 -491 532 -906 970 -1196 292 -194
666 -340 995 -389 22 -4 51 -8 65 -11 155 -26 529 -26 710 1 200 31 495 112
639 176 694 311 1186 844 1424 1540 62 180 128 486 113 525 -3 8 -2 14 3 14
23 0 20 559 -4 650 -2 8 -7 35 -10 60 -18 128 -86 364 -151 527 -276 684 -842
1222 -1540 1463 -169 58 -306 90 -549 125 -43 7 -461 16 -466 11z"/>
</g>
</svg>
